<svg width="24" height="24" viewBox="0 0 24 24" fill="none" xmlns="http://www.w3.org/2000/svg">
<path fill-rule="evenodd" clip-rule="evenodd" d="M12.6211 1.34876C12.2734 1.01721 11.7266 1.01721 11.3789 1.34876L1.37888 10.8845C1.20076 11.0544 1.09998 11.2898 1.09998 11.5359V22.0001C1.09998 22.4972 1.50292 22.9001 1.99998 22.9001H8.99998V22.0001H9.00154V16.8985C9.00154 15.2425 10.344 13.9001 12 13.9001C13.656 13.9001 14.9984 15.2425 14.9984 16.8985V22.0001H15V22.9001H22C22.497 22.9001 22.9 22.4972 22.9 22.0001V11.5359C22.9 11.2898 22.7992 11.0544 22.6211 10.8845L12.6211 1.34876ZM16.7984 21.1001H21.1V11.9212L12 3.2437L2.89998 11.9212V21.1001H7.20154V16.8985C7.20154 14.2484 9.34987 12.1001 12 12.1001C14.6501 12.1001 16.7984 14.2484 16.7984 16.8985V21.1001Z" fill="black"/>
</svg>
